<svg id="CompanyLogo" xmlns="http://www.w3.org/2000/svg" version="1.1" viewBox="0 0 300 300">
  <!-- Generator: Adobe Illustrator 29.4.0, SVG Export Plug-In . SVG Version: 2.1.0 Build 152)  -->
  <path d="M28,237.9l4.9,16.4,5.7-15.9c.3-1,.6-1.7.7-2.3.1-.6.2-1,.2-1.5,0-.6-.2-1.1-.6-1.3-.4-.2-1.1-.3-2.1-.3v-1.4h8.9v1.4c-1.1,0-2,.2-2.5.7-.6.5-1.1,1.2-1.4,2.3l-9.2,24.2h-1.3l-7-20.8-7.8,20.8h-1.3l-7.6-21c-.6-1.6-1.1-2.8-1.6-3.7-.5-.9-1-1.5-1.6-1.9-.6-.4-1.4-.5-2.4-.5v-1.4h11.9v1.4c-1.2,0-2.1.1-2.6.3-.5.2-.7.6-.7,1.3s0,.7.2,1.1c.1.4.2.9.4,1.5l5.6,16.9,6.3-17.5c-.7-1.4-1.2-2.4-1.8-2.9-.5-.5-1.1-.7-1.8-.7v-1.4h11.2v1.4c-1.4,0-2.3.1-2.7.3-.4.2-.6.6-.6,1.2s0,.8.2,1.3c.1.5.3,1.2.6,2Z"/>
  <path d="M49.7,249.8l5.3-2.3v-1.5c0-1.5-.3-2.7-.9-3.4-.6-.7-1.6-1.1-2.9-1.1s-1.3.2-1.7.5c-.4.3-.7,1-1,1.9-.3.7-.5,1.1-.8,1.4-.3.2-.6.4-1.1.4-1.2,0-1.8-.6-1.8-1.8s.6-2.1,1.9-2.7c1.2-.6,3-1,5.3-1s4.2.4,5.2,1.3c1,.9,1.5,2.3,1.5,4.4v8.2c0,1.5.1,2.6.4,3.2.3.6.8,1,1.4,1s.5,0,.9-.2c.3-.1.6-.3.7-.6l.5.9c-.3.6-.8,1-1.6,1.4-.8.4-1.6.6-2.4.6s-1.8-.3-2.4-1c-.5-.7-.8-1.6-.8-2.9h-.2c-.7,1.2-1.5,2.1-2.7,2.8-1.1.7-2.4,1-3.7,1s-2.7-.4-3.6-1.2c-.9-.8-1.3-1.8-1.3-3.2s.4-2.2,1.3-3.2c.9-1,2.4-1.9,4.6-2.9ZM55,251.9v-2.9c-2.8,1-4.8,2.1-5.8,3.1-1.1,1-1.6,2-1.6,3.1s.3,1.5.8,2c.5.5,1.2.8,2,.8s1.7-.3,2.4-.8c.7-.5,1.3-1.3,1.7-2.2.4-.9.6-1.9.6-3Z"/>
  <path d="M70.4,249.2v4.9c0,1.3,0,2.3.2,2.9.1.6.4,1,.8,1.2.4.2,1.1.3,2,.4v1.2h-9.6v-1.2c.9,0,1.6-.2,2-.4.4-.2.7-.6.9-1.2.1-.6.2-1.5.2-2.7v-4.9c0-2.9,0-4.7-.2-5.3-.1-.7-.4-1.1-.8-1.3-.4-.2-1.1-.3-2.2-.3v-1.2l5.8-1.4.4,3.6h.1c.9-1.1,2-2,3.3-2.7,1.3-.6,2.6-1,4-1s2.1.2,3.1.5c.9.4,1.6.9,2.1,1.5.4.6.7,1.3.9,2.2.2.9.3,2.1.3,3.7v6.1c0,1.3,0,2.3.2,2.9.1.6.4,1,.8,1.2.4.2,1.1.3,2,.4v1.2h-9.5v-1.2c.9,0,1.6-.2,2-.4.4-.2.7-.6.8-1.2.1-.6.2-1.5.2-2.7v-4.8c0-2.8-.3-4.7-1-5.8-.6-1.1-1.7-1.7-3.2-1.7s-2.1.3-3,.9c-.9.6-1.6,1.4-2.2,2.4-.2.3-.3.6-.4.9,0,.3-.2.7-.2,1.1,0,.5,0,1.1,0,1.8Z"/>
  <path d="M87.9,269.4c-1.6,0-2.8-.3-3.8-1-1-.6-1.5-1.5-1.5-2.4s.6-1.7,1.9-1.7.8.1,1,.3c.2.2.5.7.9,1.4.3.7.7,1.2,1,1.5.3.2.7.4,1.4.4,1.2,0,2-.4,2.4-1.2.5-.8.7-2.2.7-4.2v-12.7c0-1.4,0-2.6,0-3.5,0-.9-.1-1.5-.2-1.9,0-.6-.4-.9-.8-1.2-.5-.2-1.3-.3-2.5-.3v-1.3l7.2-1.4v19.8c0,3-.6,5.3-1.9,7-1.3,1.6-3.1,2.4-5.6,2.4ZM91.3,232.7c0-.6.2-1.2.7-1.6.4-.4,1-.7,1.6-.7s1.2.2,1.6.7c.4.4.7,1,.7,1.6s-.2,1.2-.7,1.6c-.4.4-1,.7-1.6.7s-1.2-.2-1.6-.7c-.4-.4-.7-1-.7-1.6Z"/>
  <path d="M106.3,249.8l5.3-2.3v-1.5c0-1.5-.3-2.7-.9-3.4-.6-.7-1.6-1.1-2.9-1.1s-1.3.2-1.7.5c-.4.3-.7,1-1,1.9-.3.7-.5,1.1-.8,1.4-.3.2-.6.4-1.1.4-1.2,0-1.8-.6-1.8-1.8s.6-2.1,1.9-2.7c1.2-.6,3-1,5.3-1s4.2.4,5.2,1.3c1,.9,1.5,2.3,1.5,4.4v8.2c0,1.5.1,2.6.4,3.2.3.6.8,1,1.4,1s.5,0,.9-.2c.3-.1.6-.3.7-.6l.5.9c-.3.6-.8,1-1.6,1.4-.8.4-1.6.6-2.4.6s-1.8-.3-2.4-1c-.5-.7-.8-1.6-.8-2.9h-.2c-.7,1.2-1.5,2.1-2.7,2.8-1.1.7-2.4,1-3.7,1s-2.7-.4-3.6-1.2c-.9-.8-1.3-1.8-1.3-3.2s.4-2.2,1.3-3.2c.9-1,2.4-1.9,4.6-2.9ZM111.5,251.9v-2.9c-2.8,1-4.8,2.1-5.8,3.1-1.1,1-1.6,2-1.6,3.1s.3,1.5.8,2c.5.5,1.2.8,2,.8s1.7-.3,2.4-.8c.7-.5,1.3-1.3,1.7-2.2.4-.9.6-1.9.6-3Z"/>
  <path d="M157.3,254.1c0,1.2,0,2.2.3,2.8s.6,1,1.1,1.2c.6.2,1.4.3,2.6.4v1.4h-11.8v-1.4c1.1,0,2-.2,2.6-.4.6-.2,1-.6,1.2-1.2.2-.6.3-1.4.3-2.6v-7.9h-14.8v7.7c0,1.2,0,2.2.3,2.8.2.6.6,1,1.1,1.2.6.2,1.4.3,2.6.4v1.4h-11.8v-1.4c1.1,0,2-.2,2.6-.4.6-.2,1-.6,1.2-1.2.2-.6.3-1.4.3-2.6v-17c0-1.1,0-2-.3-2.6-.2-.6-.5-1-1-1.2-.5-.2-1.3-.4-2.4-.4v-1.4h11.1v1.4c-1,0-1.8.2-2.3.4-.5.2-.9.7-1,1.3-.2.6-.3,1.5-.3,2.8v7h14.8v-7.3c0-1.1,0-2-.3-2.6-.2-.6-.5-1-1-1.2-.5-.2-1.3-.4-2.4-.4v-1.4h11.1v1.4c-1,0-1.8.2-2.3.4-.5.2-.9.7-1,1.3-.2.6-.3,1.5-.3,2.8v16.5Z"/>
  <path d="M179.1,249.9v-3.6c0-1.3,0-2.3-.2-2.9-.1-.6-.4-1-.8-1.2-.4-.2-1.1-.3-2.1-.4v-1.3h6.6v11.2c0,2.7,0,4.5.2,5.4.1.6.4,1,.7,1.2.4.2,1.1.3,2.2.3v1.3l-6,.4-.4-4.4h-.1c-.9,1.5-2,2.6-3.2,3.3s-2.5,1.1-3.8,1.1-2-.2-3-.6c-1-.4-1.7-.9-2.2-1.6-.8-1-1.2-3-1.2-5.9v-5.8c0-1.3,0-2.3-.2-2.9-.1-.6-.4-1-.8-1.2-.4-.2-1.1-.3-2.1-.4v-1.3h6.6v10c0,2.6.3,4.6,1,5.8.6,1.2,1.6,1.8,3,1.8,2.1,0,3.8-1.4,5-4.2.2-.6.4-1.1.5-1.6,0-.5.1-1.3.1-2.3Z"/>
  <path d="M194.8,249.4v4.6c0,1.3,0,2.3.2,3,.1.6.4,1,.8,1.2.4.2,1.1.3,2,.4v1.3h-9.7v-1.3c1,0,1.6-.2,2.1-.4s.7-.6.9-1.2c.1-.6.2-1.5.2-2.7v-4.7c0-1.4,0-2.6,0-3.5,0-.9-.1-1.6-.2-1.9-.1-.6-.4-1-.7-1.2-.4-.2-1.1-.3-2.2-.3v-1.3l6-1.4.5,3.7h.2c1.1-1.2,2.2-2.2,3.5-2.8,1.2-.6,2.5-.9,4-.9s2.8.3,3.9,1c1.1.6,1.8,1.5,2.2,2.7h.1c.9-1.1,2-2,3.3-2.7,1.3-.6,2.7-1,4.1-1s2.2.2,3.1.6c.9.4,1.7.9,2.1,1.6.4.6.7,1.3.9,2.2s.3,2.2.3,3.7v5.8c0,1.3,0,2.3.2,2.9.1.6.4,1,.8,1.2.4.2,1.1.3,2,.4v1.3h-9.7v-1.3c.9,0,1.6-.2,2-.4.4-.2.7-.6.9-1.2.1-.6.2-1.5.2-2.7v-4.6c0-2.8-.3-4.8-1-5.9-.6-1.1-1.7-1.7-3.3-1.7s-2,.3-3,.9c-1,.6-1.7,1.4-2.2,2.4-.2.3-.3.6-.4,1,0,.3-.1.7-.2,1.2,0,.5,0,1.1,0,1.8v4.6c0,1.3,0,2.3.2,2.9.1.6.4,1,.8,1.2.4.2,1.1.3,2.1.4v1.3h-9.7v-1.3c.9,0,1.6-.2,2-.4s.7-.6.8-1.2c.1-.6.2-1.5.2-2.7v-4.6c0-1.9-.1-3.4-.4-4.5-.3-1.1-.7-1.9-1.3-2.4-.6-.5-1.4-.7-2.5-.7s-2.1.3-3.1.9c-1,.6-1.7,1.4-2.2,2.4-.2.3-.3.6-.4,1,0,.3-.1.7-.2,1.2,0,.5,0,1.1,0,1.8Z"/>
  <path d="M234,249.4v4.6c0,1.3,0,2.3.2,3,.1.6.4,1,.8,1.2.4.2,1.1.3,2,.4v1.3h-9.7v-1.3c1,0,1.6-.2,2.1-.4s.7-.6.9-1.2c.1-.6.2-1.5.2-2.7v-4.7c0-1.4,0-2.6,0-3.5,0-.9-.1-1.6-.2-1.9-.1-.6-.4-1-.7-1.2-.4-.2-1.1-.3-2.2-.3v-1.3l6-1.4.5,3.7h.2c1.1-1.2,2.2-2.2,3.5-2.8,1.2-.6,2.5-.9,4-.9s2.8.3,3.9,1c1.1.6,1.8,1.5,2.2,2.7h.1c.9-1.1,2-2,3.3-2.7,1.3-.6,2.7-1,4.1-1s2.2.2,3.1.6c.9.4,1.7.9,2.1,1.6.4.6.7,1.3.9,2.2s.3,2.2.3,3.7v5.8c0,1.3,0,2.3.2,2.9.1.6.4,1,.8,1.2.4.2,1.1.3,2,.4v1.3h-9.7v-1.3c.9,0,1.6-.2,2-.4.4-.2.7-.6.9-1.2.1-.6.2-1.5.2-2.7v-4.6c0-2.8-.3-4.8-1-5.9-.6-1.1-1.7-1.7-3.3-1.7s-2,.3-3,.9c-1,.6-1.7,1.4-2.2,2.4-.2.3-.3.6-.4,1,0,.3-.1.7-.2,1.2,0,.5,0,1.1,0,1.8v4.6c0,1.3,0,2.3.2,2.9.1.6.4,1,.8,1.2.4.2,1.1.3,2.1.4v1.3h-9.7v-1.3c.9,0,1.6-.2,2-.4s.7-.6.8-1.2c.1-.6.2-1.5.2-2.7v-4.6c0-1.9-.1-3.4-.4-4.5-.3-1.1-.7-1.9-1.3-2.4-.6-.5-1.4-.7-2.5-.7s-2.1.3-3.1.9c-1,.6-1.7,1.4-2.2,2.4-.2.3-.3.6-.4,1,0,.3-.1.7-.2,1.2,0,.5,0,1.1,0,1.8Z"/>
  <path d="M283.1,255.5l1.1,1c-2.1,2.5-4.6,3.8-7.7,3.8s-3.6-.4-5-1.2c-1.4-.8-2.6-2-3.4-3.5-.8-1.5-1.2-3.2-1.2-5.1s.4-3.8,1.3-5.3c.9-1.5,2-2.8,3.5-3.6,1.5-.9,3.2-1.3,5.2-1.3s4.2.6,5.5,1.9c1.3,1.3,2,3.1,2,5.5s0,.5-.2.6c-.1,0-.4.1-.9.1h-12c0,.2,0,.4-.1.7,0,.3,0,.6,0,.9,0,1.7.3,3.2.8,4.4.5,1.3,1.3,2.2,2.3,2.9,1,.7,2.1,1,3.4,1s1.9-.2,2.9-.7c.9-.5,1.8-1.2,2.7-2.2ZM271.5,246.6h6.7c1,0,1.6,0,1.8-.2.2-.1.3-.4.3-.8,0-1.1-.4-2-1.1-2.7-.7-.7-1.7-1-2.9-1-2.6,0-4.3,1.6-4.9,4.7Z"/>
  <path d="M293.7,229.5v24.6c0,1.2,0,2.1.2,2.8.1.6.5,1,.9,1.3.5.2,1.2.4,2.1.4v1.3h-10.1v-1.3c1,0,1.7-.2,2.2-.4.5-.2.8-.6,1-1.2.2-.6.3-1.4.3-2.6v-15.8c0-1.3,0-2.4,0-3.3,0-.9,0-1.5-.2-1.8-.1-.6-.4-.9-.9-1.1-.5-.2-1.3-.3-2.4-.3v-1.2l6.9-1.4Z"/>
  <rect x="71.6" y="219" width="156.9" height="3.1"/>
  <path d="M300,32.6v-1.8h-65.6v1.8c8,0,12.3,4.4,12.3,12.4v67.2h-39.2v-21.9l-36.3,103.2h48.5v-1.8c-9.4,0-12.3-5.9-12.3-12.4v-65.3h39.2v65.3c0,6.5-2.8,12.4-12.3,12.4v1.8h65.6v-1.8c-9.4,0-12.3-5.9-12.3-12.4V45c0-8,4.3-12.4,12.3-12.4Z"/>
  <path d="M205.3,41c2.7-6.6,4.9-8.6,12-8.6v-1.8H63.9v1.8c11.7,0,12.8,5.6,15.7,14.5l8.1,25-21.8,62.8-1.1,3.3-8.5,24.4h-.7L17.7,47.2c-3-9.1-3.1-13.7,4.7-14.6.9,0,1.9-.1,3-.1v-1.8H0v1.8c11.7,0,12.8,5.6,15.7,14.5l47.7,146.6h24.4l20.5-58.4,9.3,28.7,9.7,29.7h24.4l14.6-41.5,36.7-104.4c.9-2.5,1.7-4.9,2.3-6.5h0ZM97.6,42.8c-.2.9-.5,2-.9,3.1l-8,23.1-7.2-21.8c-2.9-9.1-3.1-13.7,4.7-14.6.7,0,1.4-.1,2.2-.1,6,.1,9.2,2.6,9.6,6.7,0,.8,0,2-.4,3.6h0ZM160.7,45.9l-30.9,88.9-1.1,3.2-8.5,24.3h-.7l-.6-1.9-9.4-28.5,29.7-84.4c.9-2.5,1.7-4.9,2.3-6.5,2.6-6.4,4.7-8.3,11-8.6.6,0,1.1,0,1.6.1,4.7.6,7.3,2.7,7.8,6.1,0,.2,0,.3,0,.5,0,1.4-.1,3.6-1.2,6.7h0Z"/>
</svg>