<?xml version="1.0" encoding="UTF-8"?>
<svg id="uuid-f3eba2df-41e2-40ab-9fb1-0dfa7835e612" data-name="Layer 2" xmlns="http://www.w3.org/2000/svg" xmlns:xlink="http://www.w3.org/1999/xlink" viewBox="0 0 384 384">
  <defs>
    <linearGradient id="uuid-a79f3a0f-5682-41a3-a582-5ab7c0a2d5a7" x1="11.75" y1="372.25" x2="372.25" y2="11.75" gradientUnits="userSpaceOnUse">
      <stop offset="0" stop-color="#d4e6f1"/>
      <stop offset=".562898" stop-color="#d9e5ef"/>
      <stop offset="1" stop-color="#e2e5ed"/>
    </linearGradient>
  </defs>
  <g id="uuid-840c3510-590b-401c-b0bf-72faa460b413" data-name="Layer 1">
    <g>
      <rect width="384" height="384" rx="40" ry="40" style="fill: url(#uuid-a79f3a0f-5682-41a3-a582-5ab7c0a2d5a7);"/>
      <g>
        <path d="M301.948334,228.083414s6.621601,18.05266,10.48434,21.591119c3.862014,3.538459,23.567325,9.605434,23.567325,9.605434,0,0-19.705311,6.06693-23.567325,9.60539-3.862739,3.539357-10.48434,21.592017-10.48434,21.592017,0,0-6.621895-18.05266-10.484144-21.592017-3.862739-3.538459-23.56757-9.60539-23.56757-9.60539,0,0,19.704831-6.066975,23.56757-9.605434,3.862249-3.538459,10.484144-21.591119,10.484144-21.591119Z" style="fill: #1abc9c;"/>
        <path d="M82.051421,228.084312s6.621405,18.05266,10.484389,21.591343c3.86269,3.538235,23.567766,9.605165,23.567766,9.605165,0,0-19.705076,6.066078-23.567766,9.605614-3.862984,3.53828-10.484389,21.590939-10.484389,21.590939,0,0-6.620915-18.05266-10.484095-21.590939-3.862739-3.539537-23.567325-9.605614-23.567325-9.605614,0,0,19.704586-6.06693,23.567325-9.605165,3.86318-3.538684,10.484095-21.591343,10.484095-21.591343Z" style="fill: #1d76db;"/>
        <path d="M194.73794,48s6.621167,18.054006,10.483899,21.593318c3.861759,3.537382,23.568256,9.604312,23.568256,9.604312,0,0-19.706497,6.066751-23.568256,9.60521-3.862733,3.538684-10.483899,21.592196-10.483899,21.592196,0,0-6.622336-18.053513-10.48483-21.592196-3.862494-3.538459-23.56708-9.60521-23.56708-9.60521,0,0,19.704586-6.06693,23.56708-9.604312,3.862494-3.539312,10.48483-21.593318,10.48483-21.593318Z" style="fill: #2ecc71;"/>
        <polygon points="194.73794 336 160.734095 210.096964 58.723832 120.16768 194.73794 156.139771 330.751117 120.16768 228.740365 210.096964 194.73794 336" style="fill: #1d76db;"/>
      </g>
    </g>
  </g>
</svg>